<svg xmlns="http://www.w3.org/2000/svg" viewBox="910 461.069 26.842 26.842"><defs><style>.a{fill:#fff;}</style></defs><g transform="translate(1010.395 601.784) rotate(45)"><path class="a" d="M16.2,2.776a9.494,9.494,0,1,0,0,13.427A9.505,9.505,0,0,0,16.2,2.776Zm-2.97,10.458a.73.73,0,0,1-1.033,0L9.49,10.522l-2.84,2.84A.73.73,0,0,1,5.617,12.33l2.84-2.84L5.746,6.778A.73.73,0,0,1,6.778,5.746L9.49,8.457l2.582-2.582A.73.73,0,1,1,13.1,6.908L10.522,9.49,13.234,12.2A.73.73,0,0,1,13.234,13.234Z" transform="translate(-161 -38)"/></g></svg>