<svg xmlns="http://www.w3.org/2000/svg" xmlns:xlink="http://www.w3.org/1999/xlink" viewBox="1046 42 63.166 63.166"><defs><style>.a{fill:#fff;}.b{fill:url(#c);}.c{filter:url(#a);}</style><filter id="a" x="1046" y="42" width="63.166" height="63.166" filterUnits="userSpaceOnUse"><feOffset dy="4" input="SourceAlpha"/><feGaussianBlur stdDeviation="3" result="b"/><feFlood flood-color="#181743" flood-opacity="0.2"/><feComposite operator="in" in2="b"/><feComposite in="SourceGraphic"/></filter><linearGradient id="c" x1="0.881" y1="0.123" x2="0.677" y2="1" gradientUnits="objectBoundingBox"><stop offset="0" stop-color="#31cad1"/><stop offset="1" stop-color="#1d589b"/></linearGradient></defs><g transform="translate(903 -517)"><g class="c" transform="matrix(1, 0, 0, 1, -903, 517)"><circle class="a" cx="22.583" cy="22.583" r="22.583" transform="translate(1055 47)"/></g><g transform="translate(164.098 576.098)"><g transform="translate(0 0)"><path class="b" d="M18.514,2.015H17V1.448A1.425,1.425,0,0,0,15.554,0a1.465,1.465,0,0,0-1.448,1.448v.5H6.927v-.5a1.448,1.448,0,1,0-2.9,0v.5H2.456A2.6,2.6,0,0,0,0,4.471L.063,18.262A2.7,2.7,0,0,0,2.582,20.97H18.388a2.742,2.742,0,0,0,2.519-2.708L20.97,4.471A2.459,2.459,0,0,0,18.514,2.015Zm-.441,8.942v6.549a.5.5,0,0,1-.5.5H3.463a.5.5,0,0,1-.5-.5V10.957ZM5.479,6.99A1.479,1.479,0,0,0,6.927,5.479v-.5H13.98v.5a1.465,1.465,0,0,0,1.448,1.448A1.578,1.578,0,0,0,17,5.479v-.5h.567a.5.5,0,0,1,.5.5V8.06H2.96V5.479a.5.5,0,0,1,.5-.5H4.03v.5A1.479,1.479,0,0,0,5.479,6.99Z" transform="translate(0 0)"/></g></g></g></svg>