<svg xmlns="http://www.w3.org/2000/svg" xmlns:xlink="http://www.w3.org/1999/xlink" viewBox="-421.157 916 27.64 27.64"><defs><style>.a{fill:url(#a);}.b{fill:#fff;}</style><linearGradient id="a" x1="1" x2="0.087" y2="1" gradientUnits="objectBoundingBox"><stop offset="0" stop-color="#fe1e9a"/><stop offset="1" stop-color="#fea64c"/></linearGradient></defs><g transform="translate(-421.157 916)"><circle class="a" cx="13.82" cy="13.82" r="13.82"/><path class="b" d="M10.279,3.992,8.162.3A.669.669,0,0,0,7.316.062h0a.669.669,0,0,0-.242.846L8.828,3.992H3.2L4.958.908A.6.6,0,0,0,4.777.062h0A.669.669,0,0,0,3.93.3L1.814,3.992H.6a.571.571,0,0,0-.6.6H0a.571.571,0,0,0,.6.6H.786l.846,5.018a1.23,1.23,0,0,0,1.209,1.028H9.251A1.23,1.23,0,0,0,10.46,10.22L11.306,5.2h.181a.571.571,0,0,0,.6-.6h0a.571.571,0,0,0-.6-.6H10.279ZM8.767,10.038H3.325a.651.651,0,0,1-.6-.484L2.056,5.2h8.162L9.372,9.554A.651.651,0,0,1,8.767,10.038Z" transform="translate(7.774 7.894)"/></g></svg>